# xmcd CD database file
#
# Track frame offsets:
#	150
#	25535
#	44895
#
# Disc length: 831 seconds
#
# Revision: 0
# Processed by: cddbd v1.5.1PL0 Copyright (c) Steve Scherf et al.
# Submitted via: CDex 1.51
#
DISCID=1f033d03
DTITLE=久宝留理子 - 愛を凶器に
DYEAR=2000
DGENRE=J-Pop
TTITLE0=愛を凶器に
TTITLE1=Killing Me Softly With His Song
TTITLE2=愛を凶器に (Radio Edit)
EXTD=YEAR: 2000
EXTT0=
EXTT1=
EXTT2=
PLAYORDER=
